<svg viewBox="0 0 512 512" xmlns="http://www.w3.org/2000/svg"><linearGradient id="a" gradientTransform="matrix(1 0 0 -1 0 -18006)" gradientUnits="userSpaceOnUse" x1="0" x2="512" y1="-18262" y2="-18262"><stop offset="0" stop-color="#00f1ff"/><stop offset=".231" stop-color="#00d8ff"/><stop offset=".514" stop-color="#00c0ff"/><stop offset=".777" stop-color="#00b2ff"/><stop offset="1" stop-color="#00adff"/></linearGradient><path d="M512 256c0 141.387-114.613 256-256 256S0 397.387 0 256 114.613 0 256 0s256 114.613 256 256zm0 0" fill="url(#a)"/><path d="M277.23 255.98l141.895-141.89c5.855-5.86 5.855-15.356 0-21.215-5.86-5.855-15.355-5.855-21.215 0L256.02 234.77 114.125 92.875c-5.86-5.855-15.355-5.855-21.215 0-5.855 5.86-5.855 15.355 0 21.215l141.895 141.894L92.91 397.875c-5.855 5.86-5.855 15.355 0 21.215a14.955 14.955 0 0010.606 4.394c3.84 0 7.68-1.464 10.605-4.394l141.895-141.895L397.91 419.09a14.955 14.955 0 0010.606 4.394c3.84 0 7.68-1.464 10.605-4.394 5.86-5.86 5.86-15.356 0-21.215zm0 0" fill="#fff"/></svg>