<svg xmlns="http://www.w3.org/2000/svg" viewBox="0 0 512.064 512.064"><path d="M253.705 186.283L167.646 48.085a10.392 10.392 0 00-9.323-4.971 10.666 10.666 0 00-9.045 5.504L1.332 316.011a10.669 10.669 0 00.277 10.795l86.059 138.219a10.67 10.67 0 009.109 5.035h.213a10.666 10.666 0 009.045-5.504L253.982 197.1a10.667 10.667 0 00-.277-10.817z" fill="#4caf50"/><path d="M510.601 323.904a10.665 10.665 0 00-9.28-5.312l-277.333 1.451a10.667 10.667 0 00-9.195 5.333l-73.984 128.405c-2.946 5.102-1.198 11.625 3.904 14.571 1.64.947 3.503 1.44 5.397 1.429l277.333-1.451a10.666 10.666 0 009.195-5.333l74.005-128.384a10.666 10.666 0 00-.042-10.709z" fill="#2196f3"/><path d="M510.302 281.109L370.42 47.189a10.667 10.667 0 00-9.216-5.184l-149.334.79c-5.891.022-10.649 4.816-10.626 10.707a10.658 10.658 0 001.517 5.442l139.883 233.941a10.667 10.667 0 009.216 5.184l149.333-.789c5.891-.022 10.649-4.816 10.626-10.707a10.658 10.658 0 00-1.517-5.442v-.022z" fill="#ffc107"/></svg>